<?xml version="1.0" encoding="us-ascii" standalone="no"?><svg xmlns="http://www.w3.org/2000/svg" xmlns:xlink="http://www.w3.org/1999/xlink" contentStyleType="text/css" height="228px" preserveAspectRatio="none" style="width:275px;height:228px;background:#FFFFFF;" version="1.1" viewBox="0 0 275 228" width="275px" zoomAndPan="magnify"><defs/><g><rect fill="#DDDDDD" height="209.9219" style="stroke:#181818;stroke-width:0.5;" width="91" x="90.5" y="6"/><text fill="#000000" font-family="sans-serif" font-size="13" font-weight="bold" lengthAdjust="spacing" textLength="49" x="111.5" y="19.4951">Process</text><rect fill="#FFFFFF" height="52.7031" style="stroke:#181818;stroke-width:1.0;" width="10" x="131" y="78.6094"/><line style="stroke:#181818;stroke-width:0.5;stroke-dasharray:5.0,5.0;" x1="32" x2="32" y1="68.6094" y2="149.3125"/><line style="stroke:#181818;stroke-width:0.5;stroke-dasharray:5.0,5.0;" x1="135.5" x2="135.5" y1="68.6094" y2="149.3125"/><line style="stroke:#181818;stroke-width:0.5;stroke-dasharray:5.0,5.0;" x1="240" x2="240" y1="68.6094" y2="149.3125"/><path d="M10,41 L54,41 C59,41 59,54.8047 59,54.8047 C59,54.8047 59,68.6094 54,68.6094 L10,68.6094 C5,68.6094 5,54.8047 5,54.8047 C5,54.8047 5,41 10,41 " fill="#E2E2F0" style="stroke:#181818;stroke-width:0.5;"/><path d="M54,41 C49,41 49,54.8047 49,54.8047 C49,68.6094 54,68.6094 54,68.6094 " fill="none" style="stroke:#181818;stroke-width:0.5;"/><text fill="#000000" font-family="sans-serif" font-size="14" lengthAdjust="spacing" textLength="34" x="10" y="60.5332">kafka</text><path d="M10,148.3125 L54,148.3125 C59,148.3125 59,162.1172 59,162.1172 C59,162.1172 59,175.9219 54,175.9219 L10,175.9219 C5,175.9219 5,162.1172 5,162.1172 C5,162.1172 5,148.3125 10,148.3125 " fill="#E2E2F0" style="stroke:#181818;stroke-width:0.5;"/><path d="M54,148.3125 C49,148.3125 49,162.1172 49,162.1172 C49,175.9219 54,175.9219 54,175.9219 " fill="none" style="stroke:#181818;stroke-width:0.5;"/><text fill="#000000" font-family="sans-serif" font-size="14" lengthAdjust="spacing" textLength="34" x="10" y="167.8457">kafka</text><rect fill="#E2E2F0" height="31.6094" rx="2.5" ry="2.5" style="stroke:#181818;stroke-width:0.5;" width="83" x="94.5" y="36"/><text fill="#000000" font-family="sans-serif" font-size="14" lengthAdjust="spacing" textLength="69" x="101.5" y="57.5332">Application</text><rect fill="#E2E2F0" height="31.6094" rx="2.5" ry="2.5" style="stroke:#181818;stroke-width:0.5;" width="83" x="94.5" y="148.3125"/><text fill="#000000" font-family="sans-serif" font-size="14" lengthAdjust="spacing" textLength="69" x="101.5" y="169.8457">Application</text><text fill="#000000" font-family="sans-serif" font-size="14" lengthAdjust="spacing" textLength="56" x="209" y="65.5332">Postgres</text><path d="M222,15 C222,5 240,5 240,5 C240,5 258,5 258,15 L258,41 C258,51 240,51 240,51 C240,51 222,51 222,41 L222,15 " fill="#E2E2F0" style="stroke:#181818;stroke-width:1.5;"/><path d="M222,15 C222,25 240,25 240,25 C240,25 258,25 258,15 " fill="none" style="stroke:#181818;stroke-width:1.5;"/><text fill="#000000" font-family="sans-serif" font-size="14" lengthAdjust="spacing" textLength="56" x="209" y="162.8457">Postgres</text><path d="M222,175.9219 C222,165.9219 240,165.9219 240,165.9219 C240,165.9219 258,165.9219 258,175.9219 L258,201.9219 C258,211.9219 240,211.9219 240,211.9219 C240,211.9219 222,211.9219 222,201.9219 L222,175.9219 " fill="#E2E2F0" style="stroke:#181818;stroke-width:1.5;"/><path d="M222,175.9219 C222,185.9219 240,185.9219 240,185.9219 C240,185.9219 258,185.9219 258,175.9219 " fill="none" style="stroke:#181818;stroke-width:1.5;"/><rect fill="#FFFFFF" height="52.7031" style="stroke:#181818;stroke-width:1.0;" width="10" x="131" y="78.6094"/><polygon fill="#181818" points="228,96.9609,238,100.9609,228,104.9609,232,100.9609" style="stroke:#181818;stroke-width:1.0;"/><line style="stroke:#181818;stroke-width:1.0;" x1="141" x2="234" y1="100.9609" y2="100.9609"/><text fill="#000000" font-family="sans-serif" font-size="13" lengthAdjust="spacing" textLength="75" x="148" y="96.1045">Save to table</text><polygon fill="#181818" points="43,127.3125,33,131.3125,43,135.3125,39,131.3125" style="stroke:#181818;stroke-width:1.0;"/><line style="stroke:#181818;stroke-width:1.0;" x1="37" x2="135" y1="131.3125" y2="131.3125"/><text fill="#000000" font-family="sans-serif" font-size="13" lengthAdjust="spacing" textLength="75" x="49" y="126.4561">publish event</text><!--SRC=[RSx13G8n30J0lwjm0pHm3oGwE8aAd6G1ww8an4v4-Pnu843yzZ7QtVl006zosOH2VV3QQuGPDUckKPiKvrDhMQEura8eYNT7ILo267YjvjSE8vBeEiNnvJyo7uvllV1P9jWhxpKPl-prP-4sGbQxCIQAKyBVXIS0]--></g></svg>